<svg xmlns="http://www.w3.org/2000/svg" x="0" y="0" version="1.1" viewBox="0 0 50 50" width="16" height="16"
     style="fill: rgb(21, 176, 229);"><g fill="none" stroke="none" stroke-width="1" stroke-linecap="butt" stroke-linejoin="miter" stroke-miterlimit="10" stroke-dasharray="" stroke-dashoffset="0" font-family="none" font-weight="normal" font-size="12" text-anchor="start" mix-blend-mode="normal"><g><g><path d="M0,50l0,-50l50,0l0,50z" fill="none" font-family="sans-serif"/><g fill="#15b0e5" font-family="Bitstream Vera Sans"><path d="M19,5c-1.64506,0 -3,1.35494 -3,3l0,3l-13,0c-1.654,0 -3,1.346 -3,3l0,8l9,0c0,-1.103 0.897,-2 2,-2l5,0c1.103,0 2,0.897 2,2l14,0c0,-1.103 0.897,-2 2,-2l5,0c1.103,0 2,0.897 2,2l9,0l0,-8c0,-1.654 -1.346,-3 -3,-3l-13,0l0,-3c0,-1.64506 -1.35494,-3 -3,-3z M19,7l12,0c0.56294,0 1,0.43706 1,1l0,3l-14,0l0,-3c0,-0.56294 0.43706,-1 1,-1z M11,22l0,2l5,0l0,-1l0,-1z M34,22l0,2l5,0l0,-1l0,-1z M0,24l0,18c0,1.654 1.346,3 3,3l44,0c1.654,0 3,-1.346 3,-3l0,-18l-9,0c0,1.103 -0.897,2 -2,2l-5,0c-1.103,0 -2,-0.897 -2,-2l-14,0c0,1.103 -0.897,2 -2,2l-5,0c-1.103,0 -2,-0.897 -2,-2z"/></g><g fill="none" font-family="sans-serif"/></g></g></g></svg>