<?xml version="1.0" encoding="iso-8859-1"?><!-- Generator: Adobe Illustrator 19.2.1, SVG Export Plug-In . SVG Version: 6.00 Build 0)  -->
<svg xmlns="http://www.w3.org/2000/svg"
     version="1.1" id="Layer_1" x="0px" y="0px" viewBox="0 0 40 40" style="fill: rgb(52, 152, 219);"
     xml:space="preserve" width="16" height="16">
<g>
	<path style="fill:#F78F8F;" d="M20,38.5C9.799,38.5,1.5,30.201,1.5,20S9.799,1.5,20,1.5S38.5,9.799,38.5,20S30.201,38.5,20,38.5z"/>
	<path style="fill:#C74343;" d="M20,2c9.925,0,18,8.075,18,18s-8.075,18-18,18S2,29.925,2,20S10.075,2,20,2 M20,1   C9.507,1,1,9.507,1,20s8.507,19,19,19s19-8.507,19-19S30.493,1,20,1L20,1z"/>
</g>
<rect x="18.5" y="10" transform="matrix(-0.7071 -0.7071 0.7071 -0.7071 20 48.2843)" style="fill:#FFFFFF;" width="3" height="20"/>
<rect x="18.5" y="10" transform="matrix(0.7071 -0.7071 0.7071 0.7071 -8.2843 20)" style="fill:#FFFFFF;" width="3" height="20"/>
</svg>