<svg xmlns="http://www.w3.org/2000/svg" viewBox="0 0 24 24" enable-background="new 0 0 24 24" width="16" height="16" style="fill: rgb(9, 89, 163);">
    <path style="text-indent:0;text-align:start;line-height:normal;text-transform:none;block-progression:tb;-inkscape-font-specification:Bitstream Vera Sans" d="M 2 2 L 2 3 L 2 19 C 2 20.64497 3.3550302 22 5 22 L 19 22 C 20.64497 22 22 20.64497 22 19 L 22 7 L 22 6 L 21 6 L 18 6 L 18 3 L 18 2 L 17 2 L 3 2 L 2 2 z M 4 4 L 16 4 L 16 19 C 16 19.3863 16.270588 19.659473 16.40625 20 L 5 20 C 4.4349698 20 4 19.56503 4 19 L 4 4 z M 6 7 L 6 10 L 14 10 L 14 7 L 6 7 z M 18 8 L 20 8 L 20 19 C 20 19.56503 19.56503 20 19 20 C 18.43497 20 18 19.56503 18 19 L 18 8 z M 6 12 L 6 14 L 14 14 L 14 12 L 6 12 z M 6 15 L 6 17 L 14 17 L 14 15 L 6 15 z" color="#000" overflow="visible" enable-background="accumulate" font-family="Bitstream Vera Sans"/>
</svg>